<svg xmlns="http://www.w3.org/2000/svg" viewBox="0 0 32 32">
  <path fill="#fff" d="M0 0h32v32H0z"/>
  <path d="M.957 23v-1.166h1.496c.352 0 .66-.22.792-.55L8.547 7.6h1.826l5.5 13.684c.132.352.44.55.792.55h1.408V23h-6.578v-1.166H13.3c.418 0 .594-.264.44-.638l-1.254-3.234H5.863l-1.232 3.234c-.132.374.044.638.44.638H6.81V23H.957zm5.324-6.138h5.786L9.141 9.294l-2.86 7.568zm16.317 6.358c-2.112 0-3.036-1.122-3.036-2.574 0-2.266 2.398-3.674 7.15-4.51v-.682c0-1.716-.99-2.684-2.794-2.684-1.188 0-2.046.44-2.354.792.55.088.902.528.902 1.144 0 .682-.55 1.188-1.254 1.188-.836 0-1.32-.528-1.32-1.342 0-1.232 1.76-2.772 4.158-2.772 2.464 0 4.466.924 4.466 3.894v4.884c0 .858.22 1.43 1.034 1.43.594 0 1.1-.33 1.298-.572v1.188c-.176.286-.77.616-1.672.616-2.002 0-2.464-1.474-2.464-2.266v-.726c-.198.968-1.496 2.992-4.114 2.992zm-1.122-2.684c0 .88.484 1.474 1.518 1.496 2.266.044 3.696-1.958 3.696-3.19v-1.848c-3.432.682-5.214 1.98-5.214 3.542z"/>
</svg>
